/* XPM */
static char *sprite_5[] = {
/* columns rows colors chars-per-pixel */
"64 64 24 1 ",
"  c black",
". c gray10",
"X c #35211E",
"o c #222221",
"O c #2D2724",
"+ c #2D2E2C",
"@ c #3C2F32",
"# c #4E413B",
"$ c #000F54",
"% c #253146",
"& c #223F5A",
"* c #00166E",
"= c #002C76",
"- c #003F77",
"; c #3A4142",
": c #38424C",
"> c #35484F",
", c #005D7F",
"< c #464E50",
"1 c #516265",
"2 c #5E797D",
"3 c #0096A4",
"4 c #00E3AE",
"5 c #839B9C",
/* pixels */
"                                                                ",
"<<;<;;;. <<<<<<<<<<<<<<<<<<<<<<<<O<<<;<;<<<<<<<<<<;<;;;. <<<<<<<",
";;;;;;;. <;;;;;;;;;;;;;;;;;;;;<;;O;;;;;;;;;;;;;;;;;;;;;. <;;;;;;",
";;;;;;;. <;;;;;;;;;;;;;;;;;;;;1;;@;;;;;;;;;;;;;;;;;;;;;. <;;;;;;",
";;@2<;;. <;@2<;;;;;;;;;;;;;;;;<;;O;;;;;;;;;;;;;;;@2<;;;. <@2<;;;",
";;@<<;;. <;@<<;;;;;;;;;;;;;;;;1;;@;;;;;;;;;;;;;;;@<<;;;. <@<<@;;",
";;@@;;;. <;@@;;;;;;;;;;;;;;;;;1;;@;;;;;;;;;;;;;;;@@;;;;. <@@@;;;",
";;;;;;;. <;;;;;;;;;;;;;;;;;;;;1;;@;;;;;;;;;;;;;;;;;;;;;. <;@@;;;",
"<<<<<<<O.2<<<<<<<<<<<<<<<<<<<<2<<;<<<<<<<<<<<<<<<<<<<<<O.2<##<<<",
";;;;;;;. <;;;;;;;;;;;;;;;;;;;;1;;@;;;;;;;;;;;;;;;;;;;;;. <;@@;;;",
"<<<<<<<O.2<<<<<<<<<<<<<<<<<<<<2<<;<<<<<<<<<<<<<<<<<<<<<O.2<##<<<",
"<<<<<<<. 2<<<<<<<<<<<<<<<<<<<<2<<;<<<<<<<<<<<<<<<<<<<<<. 2<##<<<",
"<<<<<<<O.2<<<<<<<<<<<<<<<<<<<<2<<;<<<<<<<<<<<<<<<<<<<<<O.2<<#<<<",
"<<<<<<<O.2<<<<1555552522222222<<<<122222121111111<<<<<<O.2<#<<<<",
"<<<<<<<O.2<<<15<<<<<<<<<<<<<<<<<<<<<<<<<<<<<<<<<<<<<<<<O.2<<#<<<",
"<<<<<<<O.2<<<5<2<<<<<<<<<<<<<<<<<<<<<<<<<<<<<<<<2<;<<<<O.2<#<<<<",
"<<<<<<<..1<<<5@<<;@@@@@@@@@;@;@;;;;;;;<;<;<<<<<@<<;<<<<..1<<<<<<",
"<<<<<<<O.2<<<5<<;>&==========================&><<<;<<<<O.2<<<<<<",
"<<<<<<<..1<<<5<<@&433,,,,-,----=-=-===========&<<<;<<<<..1<<<<<<",
"<<<<<<<O.2<<<5<<@=3,--------=-=-===============1<<;<<<<O.2<<<<<<",
"<<<<<<<..1<<<2<<@=,------=-=-==================1<<;<<<<..1<<<<<<",
"<<<<<<<O.1<<<5<<@=,---=-=-====================*1<<;<<<<O.1<<<<<<",
"<<<<<<<o.1<<<2<<@=,--=-========================1<<;<<<<o.1<<<<<<",
"<<<<<<<o.1<<<2<<@=--=-=======,,,,==,,,,,======*1<<;<<<<o.1<<<<<<",
"<<<<<<<oo1<<<2<<@=,--=========================*2<<;<<<<oo1<<<<<<",
"<<<<<<<o.1<<<2<<@=--==========================*1<<;<<<<o.1<<<<<<",
"<<<<<<<.o1<<<2<<@=-==33,,===,,,,,,,,==,,,,,===*2<<;<<<<.o1<<<<<<",
"<<<<<<<o.1<<<2<<;==-==========================*2<<;<<<<o.1<<<<<<",
"<<<<<<<..1<<<2<<@=-==3,,==,,,,,,,,,,===,,,,===$2<<;<<<<..1<<<<<<",
"<<<<<<<..1<<<1<<;==-==========================*2<<;<<<<..1<<<<<<",
"<<<<<<<.O1<<<2<<;=-===========================$2<<;<<<<.O1<<<<<<",
"<<<<<<<O.1<<<1<<;====333,,,==,,,,,,,,,=,,,,===$2<<@<<<<O.1<<<<<<",
"<<<<<<<.O1<<<1<<;=-===========================$5<<;<<<<.O1<<<<<<",
"<<<<<<<O.1<<<1<<;====33,,,,==,,,,,,,,,==,,,===$2<<@<<<<O.1<<<<<<",
"<<<<<<<.O1<<<1<<<=============================$5<<@<<<<.O1<<<<<<",
"<<<<<<<OO1<<<1<<;============================*$2<<@<<<<OO1<<<<<<",
"<<<<<<<OO1<<<1<<<===========33,,,,,,==========$5<<@<<<<O.1<<<<<<",
"2222<2<O.1<<<1<<<============================*$5<<@<<<<..1<<<<<<",
"         1<<<1<<<=========================*=*=$5<<@<<<<..       ",
"         1<<<1<<<&=====================*=*=*=*%5<<@<<<<.+       ",
"o. .o....1<<<1<<<>&====*=**********$*$$$$$$$$%:2<<@<<<<... .o...",
"+. ++o.+.1<<<1<<<<<1<1<111111111121222222555552<<<@<<<<.+. ++o.+",
"+. ++oo+o1<<<1<2<<<<<<<<<<<<<<<<<<<<<<<<<<<<<<<<2<@<<<<.+. ++oo+",
"+. ++oo+.1<<<<@<<<<<<<<<<<<<<<<<<<<<<<<<<<<<<<<@<@;<<<<.+. ++oo+",
"+o.++oo+o<<<<<<;;;;;;;;;;@;@;@@@@@@@@@@@@@@@@@@@@;<<<<<.+o.++oo+",
"+. ++oo+o1<<<<<<<<<<<<<<<<<<<<<<<<<<<<<<<<<<<<<<<<<<<<< +. ++oo+",
"+o.++oo+o1<<<<<<<<<<<<<<<<<<<<<<<<<<<<<<<<<<<<<<<<<<<<<.+o.++oo+",
"+o ++oo+o2<<<<<<<<<<<<<<<<<<<<<<<<<<<<<<<<<<<<<<<<<<<<< +o ++oo+",
"+o.++oo+o22222222<2<2<2222222222222222222<2<222222<2<<< +o.++oo+",
"+o.++oo+o                                               +o.++oo+",
"+..++oo+o. .o...o. .o...o. .o...o. .o...o. .o...o. .o...+..++oo+",
"+o.++oo++. ++o.++. ++o.++. ++o.++. ++o.++. ++o.++. ++o.++o.++oo+",
"o. +ooo++. ++oo++. ++oo++. ++oo++. ++oo++. ++oo++. ++oo+o. +ooo+",
"+..o+oo++. ++oo++. ++oo++. ++oo++. ++oo++. ++oo++. ++oo++..o+oo+",
"o. +oo.+o. +oo.+o. +oo.+o. +oo.+o. +oo.+o. +oo.+o. +oo.+o. +oo.+",
"o  oo. oo  oo. oo  oo. oo  oo. oo  oo. oo  oo. oo  oo. oo  oo. o",
"2222222221222212121212111111212121222222222222222222222221222212",
"<<<<<<<<;<<<<<<<<<<<<<<<<;<<<<<<<<<<<<<;<;<<<<<<;<;<<<<<;<<<<<<<",
"<;<<<<<;<<<<<<<<<<<<<<<;;<<<<<<<<<<<<<<<;<<<<<<<<;<<<<<;<<<<<<<<",
";<<2;<<<<<<2;<<<<<<2;<<;<<<2;<<<<<<2;<<;<<<2;<<<;<<2;<<<<<<2;<<<",
"<<@;;<<<<<@;;<<<<<@;;<;<;<@;;<<<<<@;;<<<<<@;;<<;<<@;;<<<<<@;;<<;",
";<@@<<<<<<@@<<<<<<@@<<<;<<@@<<<<<<@@<<<<<<@@<<;;<<@@<<<<<<@@<<;<",
"<<<<<<<<<<<<<<<<<<<<<<;<<<<<<<<<<<<<;<<<<<<<<<;<<<<<<<<<<<<<<;<;",
"@XXXXXX@X@X@@@@@@@X@X@.@.@....@.@@@@@@@@X@X@@X@X@XXXXXX@X@X@@@@@"
};
